<?xml version="1.0" encoding="UTF-8"?><svg viewBox="0 0 1280 720" xmlns="http://www.w3.org/2000/svg" role="img" aria-labelledby="sequence-login-title sequence-login-desc">
      <title id="sequence-login-title">Secuencia del login y emisión de token JWT</title>
      <desc id="sequence-login-desc">El cliente envía credenciales a la API, que valida los campos, consulta el usuario por mobile_phone en PostgreSQL, compara el hash con bcrypt, firma un JWT de 24 horas, guarda el token y responde 200 con la cookie httpOnly access_token.</desc>
      <defs>
  <style>@import url('https://fonts.googleapis.com/css2?family=Instrument+Serif:ital@0;1&amp;family=Geist:wght@400;500;600&amp;family=Geist+Mono:wght@400;500;600&amp;family=Noto+Sans+KR:wght@400;500;600&amp;family=Noto+Serif+KR:wght@400&amp;family=Noto+Sans+TC:wght@400;500;600&amp;family=Noto+Serif+TC:wght@400&amp;display=swap');</style>
        <marker id="arrow" markerWidth="8" markerHeight="6" refX="7" refY="3" orient="auto"><polygon points="0 0, 8 3, 0 6" fill="#4f5d75"/></marker>
        <marker id="arrow-accent" markerWidth="8" markerHeight="6" refX="7" refY="3" orient="auto"><polygon points="0 0, 8 3, 0 6" fill="#eb6c36"/></marker>
        <marker id="arrow-link" markerWidth="8" markerHeight="6" refX="7" refY="3" orient="auto"><polygon points="0 0, 8 3, 0 6" fill="#2e5aa8"/></marker>
        <marker id="arrow-open" markerWidth="8" markerHeight="6" refX="7" refY="3" orient="auto">
          <polyline points="0 0, 8 3, 0 6" fill="none" stroke="#4f5d75" stroke-width="1.2"/>
        </marker>
      </defs>

      <rect width="100%" height="100%" fill="#f5f5f5"/>

      <line x1="200" y1="120" x2="200" y2="640" stroke="#2d3142" stroke-opacity="0.20" stroke-width="1" stroke-dasharray="3,3"/>
      <line x1="640" y1="120" x2="640" y2="640" stroke="#2d3142" stroke-opacity="0.20" stroke-width="1" stroke-dasharray="3,3"/>
      <line x1="1080" y1="120" x2="1080" y2="640" stroke="#2d3142" stroke-opacity="0.20" stroke-width="1" stroke-dasharray="3,3"/>

      <rect x="636" y="152" width="8" height="456" fill="#2d3142" fill-opacity="0.06" stroke="#4f5d75" stroke-width="0.8"/>
      <rect x="1076" y="272" width="8" height="280" fill="#2d3142" fill-opacity="0.06" stroke="#4f5d75" stroke-width="0.8"/>

      <line x1="200" y1="160" x2="640" y2="160" stroke="#2e5aa8" stroke-width="1.2" marker-end="url(#arrow-link)"/>
      <path d="M640,216 L684,216 L684,232 L640,232" fill="none" stroke="#4f5d75" stroke-width="1.2" marker-end="url(#arrow)"/>
      <line x1="640" y1="272" x2="1080" y2="272" stroke="#4f5d75" stroke-width="1.2" marker-end="url(#arrow)"/>
      <line x1="1080" y1="328" x2="640" y2="328" stroke="#4f5d75" stroke-width="1.2" stroke-dasharray="5,4" marker-end="url(#arrow)"/>
      <path d="M640,384 L684,384 L684,400 L640,400" fill="none" stroke="#4f5d75" stroke-width="1.2" marker-end="url(#arrow)"/>
      <path d="M640,440 L684,440 L684,456 L640,456" fill="none" stroke="#4f5d75" stroke-width="1.2" marker-end="url(#arrow)"/>
      <line x1="640" y1="496" x2="1080" y2="496" stroke="#4f5d75" stroke-width="1.2" marker-end="url(#arrow)"/>
      <line x1="1080" y1="552" x2="640" y2="552" stroke="#4f5d75" stroke-width="1.2" stroke-dasharray="5,4" marker-end="url(#arrow)"/>
      <line x1="640" y1="608" x2="200" y2="608" stroke="#eb6c36" stroke-width="1.2" marker-end="url(#arrow-accent)"/>

      <rect x="384" y="140" width="72" height="12" rx="2" fill="#f5f5f5"/>
      <text x="420" y="149" fill="#7a8399" font-size="8" font-family="'Geist Mono', monospace" text-anchor="middle" letter-spacing="0.06em">POST LOGIN</text>

      <rect x="824" y="252" width="72" height="12" rx="2" fill="#f5f5f5"/>
      <text x="860" y="261" fill="#7a8399" font-size="8" font-family="'Geist Mono', monospace" text-anchor="middle" letter-spacing="0.06em">SELECT USER</text>

      <rect x="824" y="476" width="72" height="12" rx="2" fill="#f5f5f5"/>
      <text x="860" y="485" fill="#7a8399" font-size="8" font-family="'Geist Mono', monospace" text-anchor="middle" letter-spacing="0.06em">UPDATE TOKEN</text>

      <text x="692" y="232" fill="#7a8399" font-size="8" font-family="'Geist Mono', monospace" letter-spacing="0.04em">valida email y password</text>
      <text x="692" y="400" fill="#7a8399" font-size="8" font-family="'Geist Mono', monospace" letter-spacing="0.04em">bcrypt.compare</text>
      <text x="692" y="456" fill="#7a8399" font-size="8" font-family="'Geist Mono', monospace" letter-spacing="0.04em">jwt.sign · 24h</text>

      <rect x="112" y="56" width="176" height="64" rx="6" fill="#f5f5f5"/>
      <rect x="112" y="56" width="176" height="64" rx="6" fill="#4f5d75" fill-opacity="0.10" stroke="#7a8399" stroke-width="1"/>
      <rect x="120" y="62" width="28" height="12" rx="2" fill="none" stroke="#7a8399" stroke-opacity="0.40" stroke-width="0.8"/>
      <text x="134" y="71" fill="#7a8399" font-size="7" font-family="'Geist Mono', monospace" text-anchor="middle" letter-spacing="0.08em">USER</text>
      <text x="200" y="90" fill="#2d3142" font-size="12" font-weight="600" font-family="'Geist', sans-serif" text-anchor="middle">Cliente</text>
      <text x="200" y="106" fill="#4f5d75" font-size="9" font-family="'Geist Mono', monospace" text-anchor="middle">curl · fetch · mobile</text>

      <rect x="552" y="56" width="176" height="64" rx="6" fill="#f5f5f5"/>
      <rect x="552" y="56" width="176" height="64" rx="6" fill="#ffffff" stroke="#2d3142" stroke-width="1"/>
      <rect x="560" y="62" width="28" height="12" rx="2" fill="none" stroke="#2d3142" stroke-opacity="0.40" stroke-width="0.8"/>
      <text x="574" y="71" fill="#2d3142" fill-opacity="0.80" font-size="7" font-family="'Geist Mono', monospace" text-anchor="middle" letter-spacing="0.08em">API</text>
      <text x="640" y="90" fill="#2d3142" font-size="12" font-weight="600" font-family="'Geist', sans-serif" text-anchor="middle">API Express</text>
      <text x="640" y="106" fill="#4f5d75" font-size="9" font-family="'Geist Mono', monospace" text-anchor="middle">auth.ts · app.ts</text>

      <rect x="992" y="56" width="176" height="64" rx="6" fill="#f5f5f5"/>
      <rect x="992" y="56" width="176" height="64" rx="6" fill="#2d3142" fill-opacity="0.05" stroke="#4f5d75" stroke-width="1"/>
      <rect x="1000" y="62" width="28" height="12" rx="2" fill="none" stroke="#4f5d75" stroke-opacity="0.40" stroke-width="0.8"/>
      <text x="1014" y="71" fill="#4f5d75" font-size="7" font-family="'Geist Mono', monospace" text-anchor="middle" letter-spacing="0.08em">DB</text>
      <text x="1080" y="90" fill="#2d3142" font-size="12" font-weight="600" font-family="'Geist', sans-serif" text-anchor="middle">PostgreSQL</text>
      <text x="1080" y="106" fill="#4f5d75" font-size="9" font-family="'Geist Mono', monospace" text-anchor="middle">users table</text>

      <line x1="40" y1="668" x2="1240" y2="668" stroke="#2d3142" stroke-opacity="0.10" stroke-width="0.8"/>
      <text x="40" y="680" fill="#4f5d75" font-size="8" font-family="'Geist Mono', monospace" letter-spacing="0.14em">LEGEND</text>

      <line x1="128" y1="672" x2="146" y2="672" stroke="#4f5d75" stroke-width="1.2" marker-end="url(#arrow)"/>
      <text x="154" y="680" fill="#4f5d75" font-size="8" font-family="'Geist Mono', monospace" letter-spacing="0.06em">CALL</text>

      <line x1="276" y1="672" x2="294" y2="672" stroke="#4f5d75" stroke-width="1.2" stroke-dasharray="5,4" marker-end="url(#arrow)"/>
      <text x="302" y="680" fill="#4f5d75" font-size="8" font-family="'Geist Mono', monospace" letter-spacing="0.06em">RETURN</text>

      <line x1="428" y1="672" x2="446" y2="672" stroke="#eb6c36" stroke-width="1.2" marker-end="url(#arrow-accent)"/>
      <text x="454" y="680" fill="#4f5d75" font-size="8" font-family="'Geist Mono', monospace" letter-spacing="0.06em">SUCCESS</text>
    </svg>